<svg width="67" height="20" viewBox="0 0 67 20" fill="none" xmlns="http://www.w3.org/2000/svg">
<g clip-path="url(#clip0_4234_18148)">
<path d="M4.25458 0V14.1463C4.25458 15.1913 5.08005 16.0444 6.1175 16.0952L6.21536 16.0976H11.6075V20H6.21536C3.01661 20 0.414188 17.4592 0.33487 14.2951L0.333008 14.1463V0H4.25458ZM39.7938 0.243902C41.4182 0.243902 42.735 1.56071 42.735 3.18508V4.14634L35.382 16.0976H42.735V20H34.4016C32.7773 20 31.4605 18.6832 31.4605 17.0588V16.0976L38.8134 4.14634H31.4605V0.243902H39.7938ZM23.3722 0C26.571 0 29.1734 2.54075 29.2527 5.70489L29.2546 5.85366V20H25.333V5.85366C25.333 4.80869 24.5075 3.95557 23.4701 3.90483L23.3722 3.90244H17.9801L17.98 10H22.6369V13.9024L17.98 13.9024L17.9801 20H14.0585V3.90244H17.9801V0L23.3722 0Z" fill="white"/>
<mask id="mask0_4234_18148" style="mask-type:luminance" maskUnits="userSpaceOnUse" x="0" y="0" width="43" height="20">
<path d="M4.25458 0V14.1463C4.25458 15.1913 5.08005 16.0444 6.1175 16.0952L6.21536 16.0976H11.6075V20H6.21536C3.01661 20 0.414188 17.4592 0.33487 14.2951L0.333008 14.1463V0H4.25458ZM39.7938 0.243902C41.4182 0.243902 42.735 1.56071 42.735 3.18508V4.14634L35.382 16.0976H42.735V20H34.4016C32.7773 20 31.4605 18.6832 31.4605 17.0588V16.0976L38.8134 4.14634H31.4605V0.243902H39.7938ZM23.3722 0C26.571 0 29.1734 2.54075 29.2527 5.70489L29.2546 5.85366V20H25.333V5.85366C25.333 4.80869 24.5075 3.95557 23.4701 3.90483L23.3722 3.90244H17.9801L17.98 10H22.6369V13.9024L17.98 13.9024L17.9801 20H14.0585V3.90244H17.9801V0L23.3722 0Z" fill="white"/>
</mask>
<g mask="url(#mask0_4234_18148)">
<path d="M22.8815 9.75586H17.9795V14.6339H22.8815V9.75586Z" fill="#FFB569"/>
</g>
<path d="M48.49 4.26987L48.4899 10.3674H54.1272V13.5346L48.4899 13.5345L48.49 19.6321H45.3037V4.26987H48.49ZM54.2498 0.367432C55.7475 0.367432 57.1058 0.961319 58.0997 1.92555C59.095 2.89113 59.7249 4.22812 59.7627 5.71162L59.7645 5.85574V19.6321H56.5782V5.85344C56.5782 5.23383 56.3342 4.6709 55.9364 4.25479C55.5362 3.8361 54.9802 3.56624 54.3609 3.53718L54.2543 3.53458H49.2253V0.367432H54.2498Z" stroke="white" stroke-width="1.02941"/>
<path d="M66.6345 0.367432H63.4482V19.6321H66.6345V0.367432Z" stroke="white" stroke-width="1.02941"/>
</g>
<defs>
<clipPath id="clip0_4234_18148">
<rect width="66.6667" height="20" fill="white" transform="translate(0.333008)"/>
</clipPath>
</defs>
</svg>
